<?xml version="1.0" standalone="no"?><!DOCTYPE svg PUBLIC "-//W3C//DTD SVG 1.1//EN" "http://www.w3.org/Graphics/SVG/1.1/DTD/svg11.dtd"><svg class="icon" width="64px" height="64.00px" viewBox="0 0 1024 1024" version="1.1" xmlns="http://www.w3.org/2000/svg"><path fill="#0ba360" d="M513.7 954.9h-1c-32.2 0-70.9-12.5-115.1-37.1-40.9-22.7-84.1-54.6-124.7-92.3-82.9-76.6-136.5-157.7-136.5-206.6v-371c0-17.4 10.4-32.8 26.6-39.2L503 72c0.7-0.3 1.3-0.5 2-0.7 4.6-1.5 9.2-2.3 13.9-2.3 5.7 0 11.4 1.2 16.6 3.4l326.2 136.2c15.9 6.5 26.1 21.9 26.1 39v371.2c0 24-12.7 55.9-37.7 95-24.2 37.9-56.8 77-94.2 113.2-84 81.4-172.2 127.9-242.2 127.9zM206.4 266.7v352.2c0 4.3 4.7 22.6 25.9 54.7 15 22.6 42.4 58.3 88.1 100.6 82.1 76.1 157.3 110.7 192.4 110.7h0.8c50.4 0 124.5-41.4 193.5-108.2 33-32 62.8-67.7 83.8-100.5 21.9-34.2 26.7-53 26.7-57.4V266.1l-299-124.9-312.2 125.5z m628.6 6.6c0.1 0 0.1 0 0 0 0.1 0 0.1 0 0 0z m-659-32.1z"  /><path fill="#0ba360" d="M446.3 676.7c-9 0-17.9-3.4-24.7-10.3L293.5 538.3c-13.7-13.7-13.7-35.8 0-49.5 13.7-13.7 35.8-13.7 49.5 0l103.4 103.4 234.8-234.7c13.7-13.7 35.8-13.7 49.5 0 13.7 13.7 13.7 35.8 0 49.5L471 666.5c-6.8 6.8-15.7 10.2-24.7 10.2z"  /></svg>