<?xml version="1.0" standalone="no"?><!DOCTYPE svg PUBLIC "-//W3C//DTD SVG 1.1//EN" "http://www.w3.org/Graphics/SVG/1.1/DTD/svg11.dtd"><svg class="icon" width="64px" height="64.00px" viewBox="0 0 1024 1024" version="1.1" xmlns="http://www.w3.org/2000/svg"><path fill="#0ba360" d="M142.72 295.893333c-74.922667 107.648-65.621333 247.722667-8.362667 362.112l4.181334 8.106667c0.896 1.706667 1.749333 3.498667 2.688 5.162667 0.512 1.024 1.109333 2.005333 1.664 2.944a334.592 334.592 0 0 0 8.448 14.677333l3.114666 5.12a389.973333 389.973333 0 0 0 9.002667 14.08 434.304 434.304 0 0 0 9.429333 13.610667l1.536 2.090666c2.688 3.754667 5.504 7.466667 8.362667 11.136l3.157333 4.010667 7.765334 9.514667 2.944 3.498666c3.498667 4.138667 7.125333 8.277333 10.752 12.330667l0.213333 0.213333c0.170667 0.170667 0.298667 0.256 0.426667 0.469334 3.541333 3.882667 7.253333 7.722667 10.922666 11.562666l3.541334 3.541334 8.746666 8.576 3.584 3.413333c3.925333 3.712 7.936 7.338667 11.989334 10.922667l0.170666 0.170666 2.090667 1.749334c3.541333 3.114667 7.210667 6.186667 10.88 9.173333l4.48 3.584a470.613333 470.613333 0 0 0 24.106667 18.090667c1.237333 0.896 2.432 1.792 3.712 2.645333l1.024 0.725333c3.242667 2.261333 6.570667 4.394667 9.856 6.528 1.408 0.938667 2.816 1.92 4.309333 2.858667a468.266667 468.266667 0 0 0 37.802667 21.717333c2.773333 1.450667 5.504 2.901333 8.32 4.309334l1.92 0.938666 3.413333 1.664c4.352 2.048 8.746667 4.138667 13.141333 6.101334l2.816 1.237333c5.077333 2.218667 10.197333 4.352 15.36 6.357333l3.754667 1.493334a592.853333 592.853333 0 0 0 16.298667 6.058666c5.333333 1.877333 10.752 3.626667 16.213333 5.290667l3.925333 1.194667c5.461333 1.664 10.922667 3.626667 16.64 4.693333 362.325333 66.048 467.541333-217.685333 467.541334-217.685333-88.405333 115.114667-245.248 145.493333-393.898667 111.701333-5.632-1.28-11.136-3.029333-16.64-4.650667l-4.138667-1.237333a466.304 466.304 0 0 1-32.213333-11.264l-3.968-1.536c-5.12-2.005333-10.197333-4.138667-15.189333-6.314667l-3.029334-1.322666a509.098667 509.098667 0 0 1-12.842666-5.973334l-3.712-1.792c-3.328-1.621333-6.613333-3.370667-9.898667-5.034666-2.176-1.152-4.437333-2.261333-6.613333-3.498667a353.877333 353.877333 0 0 1-11.861334-6.656l-4.010666-2.218667a486.4 486.4 0 0 1-15.488-9.514666l-4.181334-2.773334a450.432 450.432 0 0 1-11.050666-7.338666l-3.541334-2.517334c-3.498667-2.474667-6.997333-4.949333-10.410666-7.509333a508.629333 508.629333 0 0 1-13.994667-10.88l-4.224-3.370667c-3.925333-3.242667-7.850667-6.485333-11.690667-9.856a512.426667 512.426667 0 0 1-13.610666-12.288c-1.194667-1.109333-2.346667-2.176-3.456-3.328a340.693333 340.693333 0 0 1-8.874667-8.661333l-3.456-3.456a459.093333 459.093333 0 0 1-10.837333-11.477333l-0.512-0.512a501.333333 501.333333 0 0 1-11.008-12.501334l-2.858667-3.456a440.021333 440.021333 0 0 1-10.837333-13.354666 505.813333 505.813333 0 0 1-9.173334-12.202667C164.864 504.533333 135.253333 349.269333 201.173333 221.781333M375.210667 205.184c-54.186667 77.952-51.2 182.314667-8.96 264.746667 7.082667 13.824 15.061333 27.264 23.936 40.021333 8.149333 11.648 17.109333 25.472 27.904 34.816 3.925333 4.309333 7.978667 8.490667 12.117333 12.586667l3.242667 3.157333c4.010667 3.925333 8.106667 7.765333 12.416 11.562667l0.469333 0.426666 0.128 0.085334c4.736 4.138667 9.557333 8.106667 14.506667 11.989333l3.328 2.56a353.322667 353.322667 0 0 0 15.616 11.434667c2.261333 1.578667 4.608 3.072 6.869333 4.565333 1.109333 0.725333 2.176 1.493333 3.328 2.176a304.64 304.64 0 0 0 12.842667 7.850667c3.242667 1.877333 6.613333 3.712 9.941333 5.546666 1.109333 0.64 2.346667 1.237333 3.498667 1.834667 2.346667 1.194667 4.608 2.432 6.954666 3.541333a411.52 411.52 0 0 0 15.573334 7.296l3.157333 1.322667c3.968 1.664 7.936 3.285333 11.989333 4.821333l4.992 1.877334c3.669333 1.365333 7.296 2.56 10.922667 3.797333l4.992 1.578667c5.162667 1.621333 10.368 3.626667 15.786667 4.565333 279.722667 46.336 344.234667-169.002667 344.234666-169.002667-58.197333 83.797333-170.922667 123.818667-291.2 92.586667a335.616 335.616 0 0 1-31.701333-9.898667l-5.034667-1.834666a325.504 325.504 0 0 1-15.061333-6.186667 375.04 375.04 0 0 1-14.677333-6.784c-2.432-1.194667-4.821333-2.474667-7.253334-3.712l-4.224-2.176a399.018667 399.018667 0 0 1-22.741333-13.354667l-3.413333-2.261333a326.4 326.4 0 0 1-25.685334-18.56c-52.650667-41.557333-94.421333-98.389333-114.261333-162.773333-20.821333-66.816-16.298667-141.781333 19.712-202.666667M570.837333 137.429333c-31.957333 47.018667-35.114667 105.344-12.970666 157.269334 23.381333 55.125333 71.296 98.304 127.189333 118.826666a164.266667 164.266667 0 0 0 9.984 3.370667c3.285333 1.024 6.485333 2.261333 9.941333 2.858667 154.453333 29.824 196.309333-79.232 207.445334-95.317334-36.693333 52.864-98.389333 65.536-173.994667 47.146667a230.528 230.528 0 0 1-40.064-14.677333 229.973333 229.973333 0 0 1-38.186667-23.253334c-67.626667-51.370667-109.781333-149.376-65.536-229.205333" /></svg>